<svg width="274" height="44" viewBox="0 0 274 44" fill="none" xmlns="http://www.w3.org/2000/svg">
<path d="M22.2 9.4V35C22.2 37.8587 21.2827 40.0773 19.448 41.656C17.656 43.192 14.9467 43.96 11.32 43.96C7.736 43.96 5.02667 43.192 3.192 41.656C1.35733 40.0773 0.44 37.8587 0.44 35V9.4C0.44 6.54133 1.336 4.344 3.128 2.808C4.96267 1.22933 7.672 0.439999 11.256 0.439999C14.8827 0.439999 17.6133 1.22933 19.448 2.808C21.2827 4.344 22.2 6.54133 22.2 9.4ZM17.72 35V9.4C17.72 5.98667 15.5867 4.28 11.32 4.28C7.05333 4.28 4.92 5.98667 4.92 9.4V35C4.92 38.4133 7.05333 40.12 11.32 40.12C15.5867 40.12 17.72 38.4133 17.72 35ZM54.825 9.4V35C54.825 37.8587 53.9077 40.0773 52.073 41.656C50.281 43.192 47.5717 43.96 43.945 43.96C40.361 43.96 37.6517 43.192 35.817 41.656C33.9823 40.0773 33.065 37.8587 33.065 35V9.4C33.065 6.54133 33.961 4.344 35.753 2.808C37.5877 1.22933 40.297 0.439999 43.881 0.439999C47.5077 0.439999 50.2383 1.22933 52.073 2.808C53.9077 4.344 54.825 6.54133 54.825 9.4ZM50.345 35V9.4C50.345 5.98667 48.2117 4.28 43.945 4.28C39.6783 4.28 37.545 5.98667 37.545 9.4V35C37.545 38.4133 39.6783 40.12 43.945 40.12C48.2117 40.12 50.345 38.4133 50.345 35ZM131.7 9.4V35C131.7 37.8587 130.783 40.0773 128.948 41.656C127.156 43.192 124.447 43.96 120.82 43.96C117.236 43.96 114.527 43.192 112.692 41.656C110.857 40.0773 109.94 37.8587 109.94 35V9.4C109.94 6.54133 110.836 4.344 112.628 2.808C114.463 1.22933 117.172 0.439999 120.756 0.439999C124.383 0.439999 127.113 1.22933 128.948 2.808C130.783 4.344 131.7 6.54133 131.7 9.4ZM127.22 35V9.4C127.22 5.98667 125.087 4.28 120.82 4.28C116.553 4.28 114.42 5.98667 114.42 9.4V35C114.42 38.4133 116.553 40.12 120.82 40.12C125.087 40.12 127.22 38.4133 127.22 35ZM164.325 9.4V35C164.325 37.8587 163.408 40.0773 161.573 41.656C159.781 43.192 157.072 43.96 153.445 43.96C149.861 43.96 147.152 43.192 145.317 41.656C143.482 40.0773 142.565 37.8587 142.565 35V9.4C142.565 6.54133 143.461 4.344 145.253 2.808C147.088 1.22933 149.797 0.439999 153.381 0.439999C157.008 0.439999 159.738 1.22933 161.573 2.808C163.408 4.344 164.325 6.54133 164.325 9.4ZM159.845 35V9.4C159.845 5.98667 157.712 4.28 153.445 4.28C149.178 4.28 147.045 5.98667 147.045 9.4V35C147.045 38.4133 149.178 40.12 153.445 40.12C157.712 40.12 159.845 38.4133 159.845 35ZM241.2 9.4V35C241.2 37.8587 240.283 40.0773 238.448 41.656C236.656 43.192 233.947 43.96 230.32 43.96C226.736 43.96 224.027 43.192 222.192 41.656C220.357 40.0773 219.44 37.8587 219.44 35V9.4C219.44 6.54133 220.336 4.344 222.128 2.808C223.963 1.22933 226.672 0.439999 230.256 0.439999C233.883 0.439999 236.613 1.22933 238.448 2.808C240.283 4.344 241.2 6.54133 241.2 9.4ZM236.72 35V9.4C236.72 5.98667 234.587 4.28 230.32 4.28C226.053 4.28 223.92 5.98667 223.92 9.4V35C223.92 38.4133 226.053 40.12 230.32 40.12C234.587 40.12 236.72 38.4133 236.72 35ZM273.825 9.4V35C273.825 37.8587 272.908 40.0773 271.073 41.656C269.281 43.192 266.572 43.96 262.945 43.96C259.361 43.96 256.652 43.192 254.817 41.656C252.982 40.0773 252.065 37.8587 252.065 35V9.4C252.065 6.54133 252.961 4.344 254.753 2.808C256.588 1.22933 259.297 0.439999 262.881 0.439999C266.508 0.439999 269.238 1.22933 271.073 2.808C272.908 4.344 273.825 6.54133 273.825 9.4ZM269.345 35V9.4C269.345 5.98667 267.212 4.28 262.945 4.28C258.678 4.28 256.545 5.98667 256.545 9.4V35C256.545 38.4133 258.678 40.12 262.945 40.12C267.212 40.12 269.345 38.4133 269.345 35Z" fill="white"/>
</svg>
