<svg width="142" height="27" viewBox="0 0 142 27" fill="none" xmlns="http://www.w3.org/2000/svg">
<path d="M7.62 19.32C3.12 19.32 0.6 16.74 0.6 12.42C0.6 8.16 3.3 5.58 7.77 5.58C10.83 5.58 12.87 6.81 13.29 9.42H13.59V5.88H18.87V18.45C18.87 23.85 15.66 26.4 9.84 26.4C4.56 26.4 1.5 24.18 1.5 20.22H7.14C7.14 21.45 7.29 21.75 10.23 21.75C12.66 21.75 13.23 21.39 13.23 18.84V15.66H12.93C12.54 17.85 10.95 19.32 7.62 19.32ZM6.3 12.42C6.3 13.92 7.02 14.49 9.66 14.49C12.18 14.49 13.23 14.19 13.23 12.6V12.39C13.23 10.77 12.18 10.44 9.66 10.44C7.02 10.44 6.3 10.95 6.3 12.42ZM29.1054 21.3C23.9754 21.3 20.3754 19.11 20.3754 13.44C20.3754 8.52 23.9454 5.58 28.9854 5.58C34.2054 5.58 37.5354 8.19 37.5354 13.05C37.5354 13.56 37.5054 13.95 37.4454 14.49H25.5954C25.6854 16.32 26.4954 16.83 28.8954 16.83C31.1754 16.83 31.7754 16.44 31.7754 15.54V15.21H37.4154V15.57C37.4154 18.93 34.2054 21.3 29.1054 21.3ZM28.8654 9.9C26.7954 9.9 25.9254 10.35 25.6854 11.64H32.0754C31.8654 10.35 30.9654 9.9 28.8654 9.9ZM50.3545 21H46.3945C42.6145 21 40.3645 19.17 40.3645 15.24V10.5H38.1445V5.88H40.3645V3.27H46.0045V5.88H50.3545V10.5H46.0045V14.43C46.0045 15.63 46.3645 15.93 47.6545 15.93H50.3545V21Z" fill="white"/>
<path d="M57.3408 21H51.7008V0.899999H57.3408V21ZM64.7822 4.5H59.1422V0.899999H64.7822V4.5ZM64.7822 21H59.1422V5.88H64.7822V21ZM72.2236 21H66.5836V5.88H71.8636V10.47H72.1636C72.4936 7.95 74.1436 5.58 78.1936 5.58C82.2736 5.58 84.1936 8.04 84.1936 11.31V21H78.5536V13.38C78.5536 11.28 77.7736 10.62 75.3136 10.62C72.8236 10.62 72.2236 11.25 72.2236 13.2V21ZM91.5009 21H85.8609V0.899999H91.5009V11.13H94.1709L97.5009 5.88H104.161L98.7909 13.23L104.071 21H97.4109L94.2309 16.17H91.5009V21ZM113.187 21.3C108.057 21.3 104.457 19.11 104.457 13.44C104.457 8.52 108.027 5.58 113.067 5.58C118.287 5.58 121.617 8.19 121.617 13.05C121.617 13.56 121.587 13.95 121.527 14.49H109.677C109.767 16.32 110.577 16.83 112.977 16.83C115.257 16.83 115.857 16.44 115.857 15.54V15.21H121.497V15.57C121.497 18.93 118.287 21.3 113.187 21.3ZM112.947 9.9C110.877 9.9 110.007 10.35 109.767 11.64H116.157C115.947 10.35 115.047 9.9 112.947 9.9ZM129.997 21.3C125.377 21.3 122.827 18.33 122.827 13.44C122.827 8.52 125.317 5.58 129.757 5.58C133.327 5.58 135.007 7.26 135.457 9.78H135.757V0.899999H141.397V21H136.117V16.92H135.817C135.337 19.92 133.537 21.3 129.997 21.3ZM128.527 13.44C128.527 15.45 129.427 16.14 132.037 16.14C134.557 16.14 135.757 15.66 135.757 13.47V13.26C135.757 11.13 134.557 10.71 132.037 10.71C129.427 10.71 128.527 11.43 128.527 13.44Z" fill="#D434FE"/>
</svg>
