<svg width="71" height="14" viewBox="0 0 71 14" fill="none" xmlns="http://www.w3.org/2000/svg">
<path d="M3.81 10.16C1.56 10.16 0.3 8.87 0.3 6.71C0.3 4.58 1.65 3.29 3.885 3.29C5.415 3.29 6.435 3.905 6.645 5.21H6.795V3.44H9.435V9.725C9.435 12.425 7.83 13.7 4.92 13.7C2.28 13.7 0.75 12.59 0.75 10.61H3.57C3.57 11.225 3.645 11.375 5.115 11.375C6.33 11.375 6.615 11.195 6.615 9.92V8.33H6.465C6.27 9.425 5.475 10.16 3.81 10.16ZM3.15 6.71C3.15 7.46 3.51 7.745 4.83 7.745C6.09 7.745 6.615 7.595 6.615 6.8V6.695C6.615 5.885 6.09 5.72 4.83 5.72C3.51 5.72 3.15 5.975 3.15 6.71ZM14.5527 11.15C11.9877 11.15 10.1877 10.055 10.1877 7.22C10.1877 4.76 11.9727 3.29 14.4927 3.29C17.1027 3.29 18.7677 4.595 18.7677 7.025C18.7677 7.28 18.7527 7.475 18.7227 7.745H12.7977C12.8427 8.66 13.2477 8.915 14.4477 8.915C15.5877 8.915 15.8877 8.72 15.8877 8.27V8.105H18.7077V8.285C18.7077 9.965 17.1027 11.15 14.5527 11.15ZM14.4327 5.45C13.3977 5.45 12.9627 5.675 12.8427 6.32H16.0377C15.9327 5.675 15.4827 5.45 14.4327 5.45ZM25.1773 11H23.1973C21.3073 11 20.1823 10.085 20.1823 8.12V5.75H19.0723V3.44H20.1823V2.135H23.0023V3.44H25.1773V5.75H23.0023V7.715C23.0023 8.315 23.1823 8.465 23.8273 8.465H25.1773V11Z" fill="white"/>
<path d="M28.6704 11H25.8504V0.95H28.6704V11ZM32.3911 2.75H29.5711V0.95H32.3911V2.75ZM32.3911 11H29.5711V3.44H32.3911V11ZM36.1118 11H33.2918V3.44H35.9318V5.735H36.0818C36.2468 4.475 37.0718 3.29 39.0968 3.29C41.1368 3.29 42.0968 4.52 42.0968 6.155V11H39.2768V7.19C39.2768 6.14 38.8868 5.81 37.6568 5.81C36.4118 5.81 36.1118 6.125 36.1118 7.1V11ZM45.7505 11H42.9305V0.95H45.7505V6.065H47.0855L48.7505 3.44H52.0805L49.3955 7.115L52.0355 11H48.7055L47.1155 8.585H45.7505V11ZM56.5937 11.15C54.0287 11.15 52.2287 10.055 52.2287 7.22C52.2287 4.76 54.0137 3.29 56.5337 3.29C59.1437 3.29 60.8087 4.595 60.8087 7.025C60.8087 7.28 60.7937 7.475 60.7637 7.745H54.8387C54.8837 8.66 55.2887 8.915 56.4887 8.915C57.6287 8.915 57.9287 8.72 57.9287 8.27V8.105H60.7487V8.285C60.7487 9.965 59.1437 11.15 56.5937 11.15ZM56.4737 5.45C55.4387 5.45 55.0037 5.675 54.8837 6.32H58.0787C57.9737 5.675 57.5237 5.45 56.4737 5.45ZM64.9983 11.15C62.6883 11.15 61.4133 9.665 61.4133 7.22C61.4133 4.76 62.6583 3.29 64.8783 3.29C66.6633 3.29 67.5033 4.13 67.7283 5.39H67.8783V0.95H70.6983V11H68.0583V8.96H67.9083C67.6683 10.46 66.7683 11.15 64.9983 11.15ZM64.2633 7.22C64.2633 8.225 64.7133 8.57 66.0183 8.57C67.2783 8.57 67.8783 8.33 67.8783 7.235V7.13C67.8783 6.065 67.2783 5.855 66.0183 5.855C64.7133 5.855 64.2633 6.215 64.2633 7.22Z" fill="#D434FE"/>
</svg>
